<svg width="65" height="64" viewBox="0 0 65 64" fill="none" xmlns="http://www.w3.org/2000/svg">
<path d="M52.843 13.2535C52.8076 12.9212 52.519 12.7731 52.3041 12.7731C52.0891 12.7731 47.3759 12.4046 47.3759 12.4046C47.3759 12.4046 44.1027 9.04667 43.7066 8.71435C43.3473 8.3458 42.6626 8.45605 42.3755 8.53008C42.3402 8.53008 41.6555 8.75215 40.5409 9.1207C39.4263 5.83525 37.5195 2.8459 34.102 2.8459H33.778C32.84 1.59062 31.6179 1 30.6108 1C22.6965 1 18.8829 11.1493 17.6961 16.3169C14.6026 17.3139 12.4072 17.9769 12.1554 18.0888C10.4282 18.6416 10.3929 18.6794 10.1764 20.3394C9.99679 21.5947 5.5 57.2826 5.5 57.2826L40.504 64L59.4999 59.7932C59.5352 59.7192 52.8798 13.5858 52.843 13.2535ZM38.5972 9.63573C37.7344 9.89402 36.6904 10.2263 35.648 10.5949V9.93182C35.648 7.93945 35.3962 6.31563 34.928 5.02255C36.7258 5.24463 37.8419 7.2748 38.5972 9.63573ZM32.7325 5.4289C33.2008 6.68418 33.5247 8.45605 33.5247 10.891V11.2596C31.5826 11.8864 29.5315 12.5148 27.4082 13.2157C28.595 8.5663 30.8626 6.27782 32.7325 5.4289ZM30.4296 3.14043C30.7889 3.14043 31.1497 3.28848 31.4368 3.50898C28.8821 4.72645 26.1846 7.78983 25.0685 13.9906C23.3782 14.5434 21.7585 15.0238 20.2124 15.5404C21.5082 10.817 24.7461 3.14043 30.4296 3.14043Z" fill="#7CB342"/>
<path d="M52.5796 13.236C52.3745 13.236 47.9098 12.8714 47.9098 12.8714C47.9098 12.8714 44.8082 9.5486 44.4328 9.21975C44.2946 9.07325 44.1244 9 43.9891 9L41.5 64L59.5 59.8372C59.5 59.8372 53.1935 14.1135 53.1586 13.7846C53.0219 13.4558 52.7833 13.3093 52.5796 13.236Z" fill="#558B2F"/>
<path d="M33.5 23.8952L31.3402 30.813C31.3402 30.813 29.3826 29.7012 27.0544 29.7012C23.5783 29.7012 23.4099 32.0305 23.4099 32.6043C23.4099 35.7577 31.1719 36.9767 31.1719 44.3953C31.1719 50.2371 27.6957 54 23.0043 54C17.3348 54 14.5 50.2729 14.5 50.2729L16.0184 44.969C16.0184 44.969 18.9879 47.6932 21.4859 47.6932C23.139 47.6932 23.814 46.3311 23.814 45.3282C23.814 41.2061 17.4695 41.0273 17.4695 34.2183C17.4695 28.5195 21.3175 23.0011 29.1131 23.0011C32.0138 22.9638 33.5 23.8952 33.5 23.8952Z" fill="white"/>
</svg>
