<svg width="157" height="32" viewBox="0 0 157 32" fill="none" xmlns="http://www.w3.org/2000/svg">
<path d="M47.5317 21.6514L45.0459 26.5662L35.3197 7.31314H40.4831L47.5317 21.6514ZM45.7544 15.0979L49.6091 7.31314H54.7725L48.264 20.1976L45.7544 15.0979ZM57.654 10.2201L60.1394 5.3053L69.866 24.5583H64.7026L57.654 10.2201ZM59.431 16.7732L55.5766 24.5583H50.4132L56.9214 11.6736L59.431 16.7732ZM75.7489 19.631H70.946V7.31314H75.7489V19.631ZM70.946 20.8629H87.757V24.5583H70.946V20.8629ZM94.962 14.6792V24.5583H90.1587V7.31314H96.4027L103.451 21.6514L100.966 26.5662L94.962 14.6792ZM111.773 7.31314V24.5583H106.97V14.6792L104.184 20.1976L101.674 15.0979L105.529 7.31314H111.773ZM114.174 7.31314H118.977V24.5583H114.174V7.31314ZM121.379 20.8629H126.182V24.5583H121.379V20.8629ZM128.584 7.31314H133.387V24.5583H128.584V7.31314ZM148.997 12.2402C148.997 11.4191 148.597 11.0086 147.796 11.0086V7.31314C151.799 7.31314 153.8 8.95548 153.8 12.2402V19.631C153.8 22.9159 151.799 24.5583 147.796 24.5583H142.993V20.8629H147.796C148.597 20.8629 148.997 20.4523 148.997 19.631V12.2402ZM140.591 19.631C140.591 20.4523 140.992 20.8629 141.792 20.8629V24.5583C137.79 24.5583 135.788 22.9159 135.788 19.631V12.2402C135.788 8.95548 137.79 7.31314 141.792 7.31314H146.595V11.0086H141.792C140.992 11.0086 140.591 11.4191 140.591 12.2402V19.631Z" fill="#DCDCDC"/>
<path d="M13.6506 2.56458C20.8663 2.56458 26.7226 8.51377 26.7226 15.844C26.7226 23.1743 20.8663 29.1235 13.6506 29.1235C6.4348 29.1235 0.578522 23.1743 0.578522 15.844C0.578522 8.51377 6.4348 2.56458 13.6506 2.56458Z" fill="#19BC9B"/>
<path d="M13.7322 7.71338C18.2014 7.71338 21.8285 11.398 21.8285 15.9381C21.8285 20.4781 18.2014 24.1628 13.7322 24.1628C9.26311 24.1628 5.63599 20.4781 5.63599 15.9381C5.63599 11.398 9.26311 7.71338 13.7322 7.71338Z" fill="#34495E"/>
<path d="M21.1328 3.76562C24.0023 3.76562 26.3312 6.13147 26.3312 9.04654C26.3312 11.9616 24.0023 14.3275 21.1328 14.3275C18.2633 14.3275 15.9344 11.9616 15.9344 9.04654C15.9344 6.13147 18.2633 3.76562 21.1328 3.76562Z" fill="#DCDCDC"/>
</svg>
